<svg width="23" height="20" viewBox="0 0 23 20" xmlns="http://www.w3.org/2000/svg">
<path d="M6.40799 16.7922C7.97754 18.3635 10.0433 19.342 12.2534 19.561C14.4635 19.7799 16.6812 19.2259 18.5286 17.9931C20.3759 16.7604 21.7388 14.9252 22.3848 12.8004C23.0309 10.6755 22.9202 8.39235 22.0717 6.33992C21.2232 4.28749 19.6893 2.59276 17.7313 1.54445C15.7734 0.496152 13.5125 0.159137 11.334 0.590828C9.15543 1.02252 7.19394 2.19621 5.7837 3.91193C4.37347 5.62766 3.60174 7.77926 3.59999 10.0002L5.99999 10.0002C5.99852 8.33434 6.57474 6.71954 7.63044 5.43093C8.68614 4.14233 10.156 3.25966 11.7896 2.93334C13.4231 2.60701 15.1193 2.85723 16.5891 3.64135C18.0588 4.42547 19.2112 5.69497 19.8498 7.23352C20.4885 8.77208 20.5739 10.4845 20.0915 12.0789C19.609 13.6734 18.5887 15.0512 17.2042 15.9777C15.8197 16.9041 14.1569 17.3218 12.499 17.1596C10.841 16.9974 9.29065 16.2654 8.11199 15.0882L6.40799 16.7922ZM9.59999 10.0002L-1.22827e-05 10.0002L4.79999 14.8002L9.59999 10.0002Z" fill="black"/>
</svg>
